<svg width="92" height="93" fill="none" xmlns="http://www.w3.org/2000/svg">
	<path d="M35.38 86.52h1.68l1.8-.12 1.44-.12 1.92.24 1.56-.24 1.44-.12 5.28.36h1.8l4.8-.72 1.68-.84.84-1.32.96-3 .72-1.8.36-1.32.96-1.8.36-1.8.48-1.2.48-1.8.84-1.44.12-1.44.72-1.92.48-1.44.72-1.8.24-1.2.6-1.56.84-1.92.24-1.56.72-1.44.48-1.8.48-1.32.36-1.56.48-1.68.72-1.56.36-1.44.96-1.56.24-1.8.72-1.56.6-1.68.36-1.2.72-1.92.12-1.44.96-1.56.36-1.68.6-1.32.84-3.36.72-1.56.24-1.32 1.2-3.6.6-1.44.48-1.32.48-1.68.84-1.8.24-1.56.72-1.44.36-1.56.72-1.8.72-2.88.36-1.68-.84-1.2-1.8-.6-2.88-.12-1.8-.24-1.68.12h-1.56l-1.8.24-1.32-.12-1.8-.12h-1.8L67.66.96h-1.32l-3.72.24-1.44.36-1.56.24-1.44.96-.96.72-.96 1.56-.96 3.24-.36 1.68-.48 1.44-.36 1.92-.12 1.32-.48 2.04-.48 1.32-.24 1.56-.6 1.92-.36 1.56-.48 1.8-.48 1.68-.36 1.44-.36 1.68-.48 1.56-.48 1.32-.6 2.16-.48 1.44-.24 1.56-.48 1.56-.24 1.2-.48 1.44-.72 1.8-.72 2.4-.84 1.92h-.96l-.6-1.2-.72-2.4-.48-2.16-.48-1.44-.48-2.28-.84-2.4-.48-1.92-.24-1.2-.84-3.36-.48-1.56-.6-1.92-.36-1.44-.36-1.68-.84-1.68v-1.8l-.72-1.32-.24-1.92-.24-1.56-.48-1.8-.24-1.56-.6-1.32-.36-1.8-1.08-3.12-.72-1.56-1.08-1.32-1.68-.6-3.48-.36h-3.12l-3.12-.24-1.92.12h-1.56l-1.44.12-1.92-.36-1.32.24L7.06.96l-3.36.48-1.8.36-.6 1.32L.94 4.8l1.08 3.24.48 1.56.48 1.2.6 2.04.6 1.2.48 1.56.36 1.8.96 1.68.12 1.2.72 1.68.48 1.92.72 1.56.36 1.2.6 1.92.36 1.2.6 1.8.84 1.44.36 1.92.6 1.56.36 1.56.84 1.44.12 1.44.96 1.56.48 1.56.36 1.92.6 1.2.24 1.92.6 1.56.48 1.44.84 1.8.36 1.2.84 1.8.84 3.24 1.56 4.68.72 1.68.72 2.88.84 1.68.6 1.44.6 1.56.12 1.56.72 1.8.36 1.44.84 1.56.96 3.48.96 1.2 1.56.72 1.56.24 3.6.48Zm-9.96-62.88-.24-.6-.36-.96-.36-.6-.6-.36.36-.6h1.2l.36.6h1.2l.36-.24-.6-.72-.96-.24v-.72l-.36-.84-.6-.36-1.92-1.92-.96-.6h-1.92l-.24-.6-1.32-.36-.36-.6.72-.72h.24l.72-.24h.6l.36-.96h-.72l-.6-.72v-.6l.36-.24.6.24.96-.6v-.36l-.6-.24-1.32-1.32-.36-.6-.24-.6h-.72v1.2l-.6.96-.24.36-.96.24-.72-.24h-.96l-.24.96h.6l.6.24h.72l1.2-.24h.96V12l-.36.6-.6-.36-.24-.24h-1.32l-.36.6-.24.6-1.92.72h-.6l-.96-.36v.96l.24.36-.6.84-.96-.6-.6-.96-.36-.24-.24-.72-.72-.24-.24-.72-.36-.24-.36-.96V9.72l.96-.6.72-.36.84-.6h1.92l.36.6.96.36V7.8l-.36-.6v-.96l.6-.24v-.72l-.24-.6-.96-.6.6-.72.6.36.36.36.6-.36h.96v.6l-.24.36V6l.24.24.72-.24v-.72l.24-.6.96-.36h1.32l.6-.6.6.6 1.32-.24.6-.36.36.6v.72l.6 1.2-.36.72-.24.6.6.24.36-.24.6-.96V4.68l.36-.6h.24v.6l.36.6V6.6l.36.6.24.6.96-.6v-.6l.36-.96.6.36.6.6v.6l-.24.6.24.96.36.72v.6l.36.36v.6l-.72.24v-.24h-.6l-.96.6-.6-.36-.6-1.2V8.52l-.72-.72-.24-.84-.72 1.2-.24.6v.72l-.36.6v1.2l-.96.36-.36-.36v1.92l.96 1.92.72.36h.6l.96-.6.36-.72.6-.24.6.24.36.36.24.6.96.36.72.24.6.36.24.36.72.24.6.36V18l-.6.36H28.9v-.72l-.96-.96-1.2.36-.36.6V18l.36.6.24.36.36.6.6.36.36.24v.96l.36.72.24.6.96-.6.6.96H28.9l-1.2-.72-1.32.36-.6.36.24.84h-.6Zm40.56-18.6-.36-.72.72-.24h.6l-.36.96h-.6ZM6.46 6v-.72l.6-.24V6h-.6ZM73.3 6v-.72h.24l.36.36-.6.36Zm-62.4.96-.72-.72.72-.6.6.6-.6.72Zm-5.16 1.2.96-1.2.36-.36.6-.36h.72l.6-.24.6.24-.24.72-.96.24h-.72l-.6.36-.6.6h-.72ZM67.9 9.48l.36-.72.24-.6h.6l.36-.6V6.6l.6-.36.96-.24h.36l-.6 1.2-.72.36-.96 1.2-.24.36-.96.36Zm10.44-2.52-.36-.36v-.36h.72l-.36.72Zm-17.16 1.8-.6-.24-.24-.96h.6v-.6l.24-.36.36 1.2-.36.96Zm2.28.96-.6-.96V7.8l.24-.6.96-.24v1.2l-.24.36v.96l-.36.24ZM37.78 91.68l2.76.36 3.12-.24h1.2l1.68.12 1.44-.12 1.44.12 1.56-.12h2.88l1.44.12h4.2l3.12-.84.72-.84 1.08-1.44.96-2.52.48-1.2.24-1.44.48-1.68.36-1.32.6-1.44.6-1.2.36-1.32.48-1.56.6-1.08.36-1.68.84-2.52.36-1.32.6-1.32.6-1.68.36-1.32.48-1.56.24-.96.72-1.44.12-1.44.48-1.56.84-1.32.12-1.2.72-1.68.36-.96.6-1.8.36-.96.36-1.8.36-1.32.48-1.08 1.2-3.12.48-1.2.24-1.32.72-1.2.36-1.68.6-1.2.36-1.56.6-1.08.36-1.32.24-1.44.48-1.56.36-1.32.72-1.32.24-1.56.6-1.32.36-1.56 1.2-2.52.6-1.32.12-1.44 1.2-3 .84-2.52.24-1.2-.36-1.56-.96-.72-1.44.72-.6 2.16-.48 1.8-.72 1.32-.24 1.2-.36 1.2-.84 1.68-.36 1.44-.24 1.2-.72 1.56-.24 1.44-.48 1.08-.48 1.44-.72 1.44-.36 1.44-.24 1.2-.48 1.32-.6 1.44-.36 1.32-.6 1.56-.48 1.2-.6 1.44-.12 1.44-.6 1.32-.72 1.2-.24 1.44-.72 1.56-.36 1.32-.12 1.44-.48 1.56-.48.96-.48 1.56-1.2 2.88-.6 1.08-.24 1.56-.48 1.32-.6 1.44-.48 1.32-.12 1.56-.72 1.2-.24 1.44-.48 1.56-.84.96-.12 1.44-.36 1.56-.6 1.32-.36 1.56-.48 1.44-.72 1.32-.6 1.08-.24 1.56-.36 1.32-.48 1.32-.72 1.44-.72 2.76-1.08 1.2-.6.72-1.56.6-1.32.24-2.88.12-1.68.12-1.44.12h-1.2l-1.56-.36-1.44.36-1.2-.24-1.44.24h-4.2l-1.56-.24-1.44.24-2.88-.48-.72 1.44.96.84 1.32.6 1.68.24Zm5.04-51.96.96 2.16 1.2-.84.24-1.32v-3.84l-.24-1.2-.24-1.44-.48-1.32-.36-1.56-.12-1.56-.24-1.08-.48-1.56-.36-1.2-.6-1.32v-1.8l-.24-1.2-.72-1.44-.12-1.56-.48-1.2L40.3 15l-.48-1.08-.36-3-.84-1.08-.6-1.32-1.2-.84-1.44.6.48 2.04.6 3 .72 1.2v1.44l.6 1.68.12 1.32.24 1.2.6 1.44.24 1.32.24 1.56.24 1.2.48 1.56.36 1.44.48 1.08.24 1.32 1.08 4.32.12 1.56.6.96v1.8Zm23.16-30-.36-.24v-.72l.36-.96.6.36v1.32l-.6.24Zm-39.24-.24.6-.72-.36-.24-.24.96Zm43.32.6v-.96l.96.6-.96.36Zm3.24.96-.36-.36-.36-.6.72-.36.24.72v.6h-.24Zm-62.76 1.92.6-.36.72-.36h.6l.6.36.6-.36.36-.6-.36-.96-.24-.24h-.6l-1.32.24-.96.36-.36.6-.24.6v.36l.6.36ZM61.9 12l-.72-.72.36-.84.96.84V12h-.6Zm10.68.96-.24-.36.24-.6.72.6-.72.36ZM6.1 12.6v-.36l.6.36h-.6Zm17.16 1.32-.36-1.32.36-.36h.6v1.32l-.6.36Zm-6 5.28L16.9 18l.36-.36-.36-.96-.36-.6-.6-.36-1.32.36-1.2.36-.36-.96.6-.6 1.32-.36.96-.6.36-.36.24-.6.72.6.24.6v1.32l-.24.24v.72l.6.96v1.2l.96-.24.24.6-1.2.24h-.6Zm42.72-4.32-.6-.36v-.6l.24-.72.36-.24h.96v1.2l-.36.72h-.6Zm-51 5.04-.36-.72V18l-.24-.6-.36-.72.36-.6-.72-.36-.24-.84.24-.72.96-.24-.6.96.6 1.2v.96l.72.96.6.36.24.6-.6.96h-.6Zm60.84-5.04.24-.72.72.36-.72.36h-.24Zm-6 7.92-.72-.72v-.96l-.24-.96-.72-.96-.6-.84v-1.92l.36-.72.24-.24.36.6.36 1.32-.36.24.36 1.32.6.6.6.96v1.32l-.24.96Zm2.16-6.12-.6-.24.24-.36h.36v.6Zm-43.44 2.28-.96-.6.96-.36h.72l.24.36-.24.6h-.72Zm48.84.6-.36-.6.36-.6v1.2Zm-14.64.96-.6-.96.6-.96h.36l-.6.96.6.36.36.6h-.72Zm8.28-.6v-.72l.36-.6h.6v.6l-.96.72Zm-35.16.6.36-.96h.96l.6.36-.36.24h-.6l-.96.36Zm-18 1.56-.36-.6v-.6l.36-.96.24.6.36.6v.72l-.6.24Zm9.48-1.56.6-.6v.6h-.6Zm-7.92.36v-.72l.6.36-.6.36Zm52.56 2.76-.36-.6v-.6l.36-.6.36-.72.6.36-.36.36v1.56l-.6.24Zm-10.08 0 .24-.84-.6-.96.36-.36.6.96v.36l-.6.84Zm-36.12-.6.24-.6.36.6h-.6Zm41.4 1.32-.6-.72-.24-.6.24-.6h.6l-.24.6.6.96-.36.36ZM16.54 24v-.36l.72-.24.24.6h-.96Zm6.72 1.56v-.6l-.72-.6-.24.24-.72.36v-.6l.96-.72.72.36.24.6.36.96h-.6Zm7.2.72v-.72l-.24-.6.6-.96.6-.36.72.36-.36.6v.96l-.36.72h-.96Zm-15.12-.96-.36-.36-.36-.6.36-.36.6.36v.6l-.24.36Zm12 1.2-.96-.24.6-.96.96-.96h.96v1.56l-.96.36-.6.24Zm31.68-.96-.96-.24h-1.32l-.24-.36.6-.36.96-.24.96.6v.6ZM18.1 30l-.6-.6-.24-.36-.72-.24-1.2-.36-.72-.96-.6-.6-.96-.6-.24-.72.24-.6.6.96.96.36.96.6.36.24.6.72.72.24h.24l.6.36.36.96-.36.6Zm55.8-4.44-.36-.6h.72l-.36.6Zm-12.96.96-.36-.6.96-.36v.96h-.6Zm3.48 1.92v-.6l-.36-.72-.24-.6-.36-.6.6-.36.6.72.36.84-.6 1.32ZM18.1 27.12l-.6-.84 1.32-.36v.96l-.72.24Zm6.12 1.32-.36-.6.36-.72.24-.24h.72l.24.96-.24.24h-.36l-.6.36Zm46.2-.96.6-.6.72.24v.36h-1.32ZM55.54 28.8v-.96l.36-.72h.24l.36.96-.6.36-.36.36Zm-24.36.6-.72-.36-.24-.6.96-.6.6.24.36.72-.96.6Zm30.72 1.92-.72-.6.36-.72v-.96l-.6.36h-.36l-.96-.96.36-.6.36.6.24.6.36-.24.6-.72h.6l.72.96-.36.72-.36 1.2-.24.36Zm-42.84.96-.6-.96.96-.36.36-.24.6-.72v-.6l.6-.6h.36l.6.24.36.72-.96.24-.6.36-.36.6v.96l-1.32.36Zm7.68-.36-.96-.6-.6-.36-.36-.6.36-.36.6.36 1.2-.36-.24-.6.24-.36.36.96h.6l.96-.24v1.2l-.24.36-.72.6h-1.2Zm40.2.36-.6-.36.24-.6.36-.6.6-.72.36-.24.6-.36.36.36-.36.6h-.24l-.96.96v.6l-.36.36Zm-51.36-1.32-.24-.24.24-.72.72.36v.36l-.72.24Zm18.36 3.84-.24-.36-.96-.96-.36-.6-.24-.6-.72-.36v-.36l.36-.24.36-.6.24-.72h1.56l.36.96-.36.96.36.96v1.32l-.36.6Zm22.56-2.28-.6-.24.84-.72.72-1.2.24.6-.24.36-.36.24-.6.96Zm-30.72.96-.6-.24-.36-.36-.6-.36-.36-.24.36-.72.6.36.6.6.36.96Zm30.12 2.88-.36-.6-.96-.72-.6-.24-.96-.96v-.96l.6.96.36.6.6-.24h.6l.72-.36.6-.36.96-.24 1.2-.72.96.36.36-.6.36-.36.24.6-.24.96h-.96l-.72-.6-.6.6-.6.72-.36.24h-.6l-.6.6.6.36.24.96h-.84Zm-33-1.32-.6-.24-.36-.36.36-.6h1.2l.36.96-.96.24Zm-5.64.96-.96-.6.24-.6.72.24h.6l.24-.24h.36v.6l-.96.6h-.24Zm47.4-.24.36-.96.36.24-.72.72Zm6.12 0-.36-.36.36-.36.24.36-.24.36Zm-11.76.96-.6-.36-.36-.6.6-.36.36 1.32Zm-25.08 9.12-.84-.24-.72-.36-.24-.6.24-.72.72-.24.24-.72.36-.6v-2.52l-.6-.36.24-.24.6.24.72.72.6-.96v-.36l-.6-.96-.72-.6-.24-.36-.36-.6.36-.6.96.96.96.24.24.72.36.6v1.92l-.6.6-.72.6v.72l-.6.84-.36 1.32.36.96-.36.6Zm-9.12-6.96-.36-.6v-.6l.36-.36.36.6.24.72-.6.24Zm27.24 5.4v-.6l.36-.72.84-.24.36-.36.6-.24.72-.36.24-.6v-1.32l-.24-.6v-.6l-.36-.72.96-.24.36.6.6-.36.24-.6h.96l.36.6-.6.36h-.72l-.6.96v1.92l.6.24h.72l.24.96-.6.36-.96.24v-.84l-.24-.72-.72.72-.24.6-.36.96h-.6l-.72.24-.24.36h-.96Zm8.52-6.36.6-.6v.6h-.6Zm-9.48 3.84-.6-.96.24-.6.72-.36.96-.6.84.24v1.68l-.6-.36-.96.6-.6.36Zm-31.08-.96-.6-.6.96-.72.6.36-.24.6-.72.36Zm38.64-.36-.24-.6.6-.36.36.36-.72.6Zm-27.24.36v-.96l.72.36-.72.6Zm30.72 0v-.6l.72.24-.36.36h-.36Zm-3.12 4.08-.6-.24-.36-.96.6-.36.72.6-.36.96Zm-39.96.72-.24-.72h.6l-.36.72Zm33.96 1.2-.36-.24h-1.2l-.96-.36v-.6l.96-.36 1.2.36h.96l.36.96-.96.24Zm-26.04 0-.24-.24-.72-.36.72-.36.24.36.36.36-.36.24Zm32.04 0-.96-.24.96-.36v.6Zm-35.16 1.32v-.36l.36-.36.24.36-.6.36Zm35.52 1.56-.36-.6.36-.72.24-.24.72.24-.72 1.32h-.24Zm-36.48 0-.36-.36-.24-.96h.24l.96.96-.6.36Zm13.68 0-.72-.36.72-.24v.6Zm9.48 2.52-.36-.6h.6l-.24.6Zm-1.56 1.32v-.72h.24l.36.36-.6.36Zm13.92.96-.72-.36v-.6l.72-.72h.96l-.36.72-.6.96Zm-34.56 1.2.36-.6.24-.6.36.24-.36.6-.6.36Zm26.64-.6-.72-.36v-.24l.72.6Zm-20.64 2.88v-.72l.36-.6v-.6l.6.24V57l-.96.96Zm4.8-.36-.36-.96.6.36-.24.6Zm24.96 2.16-.24-.6.24-.6.72.24.24.96h-.96Zm-2.88 1.68.36-1.32.6-.36h.72l.6.72-.36.24-.6-.6-.6.6-.36.72h-.36Zm5.4 1.2-.6-.24.6-.72h.72v.72l-.72.24Zm-4.68 1.56-.72-.24-.24-.72.6.36.36.6Zm-19.68 2.88-.36-.36.72-.24-.36.6Zm-6.6 2.52-.72-.24.36-.96.36-.36.6-.36.6-.6-.24.6v.72l-.36.6-.6.6Zm20.28-.96.24-.6h.36v.6h-.6Zm-18.12 1.92.36-.6.6-.6.6-.36-.24.6-.72.72-.6.24Zm-4.44 0 .36-.6.24.6h-.6Zm22.2 1.32-.36-.36v-.96h.96l.36.6-.6.36-.36.36ZM47.26 75l.72-.36.24-.6.6.36-.6.6h-.96Zm-9.84.36-.6-.36.36-.6.6.24-.36.72Zm-6 1.92-.6-.96.36-.36.6.96-.36.36Z" fill="#000" />
</svg>
